<svg height="512" viewBox="0 0 64 64" width="512" xmlns="http://www.w3.org/2000/svg" xmlns:xlink="http://www.w3.org/1999/xlink"><linearGradient id="New_Gradient_Swatch_3" gradientUnits="userSpaceOnUse" x1="32" x2="32" y1="61.441" y2="2.378"><stop offset="0" stop-color="#006df0"/><stop offset="1" stop-color="#00e7f0"/></linearGradient><linearGradient id="New_Gradient_Swatch_3-4" x1="36" x2="36" xlink:href="#New_Gradient_Swatch_3" y1="61.441" y2="2.378"/><g id="Location_pin" data-name="Location pin"><g fill="url(#New_Gradient_Swatch_3)"><path d="m32 62a30 30 0 1 1 30-30 30.034 30.034 0 0 1 -30 30zm0-58a28 28 0 1 0 28 28 28.032 28.032 0 0 0 -28-28z"/><path d="m32 58a1 1 0 0 1 -.733-.32c-.787-.849-19.267-20.918-19.267-31.68a20 20 0 0 1 40 0c0 10.762-18.48 30.831-19.267 31.68a1 1 0 0 1 -.733.32zm0-50a18.021 18.021 0 0 0 -18 18c0 8.84 14.535 25.632 18 29.509 3.464-3.876 18-20.672 18-29.509a18.021 18.021 0 0 0 -18-18z"/><path d="m32 39a13 13 0 1 1 13-13 13.015 13.015 0 0 1 -13 13zm0-24a11 11 0 1 0 11 11 11.013 11.013 0 0 0 -11-11z"/></g><path d="m40 27a1 1 0 0 1 -1-1 7.008 7.008 0 0 0 -7-7 1 1 0 0 1 0-2 9.011 9.011 0 0 1 9 9 1 1 0 0 1 -1 1z" fill="url(#New_Gradient_Swatch_3-4)"/></g></svg>