<?xml version="1.0"?>
<svg xmlns="http://www.w3.org/2000/svg" xmlns:xlink="http://www.w3.org/1999/xlink" viewBox="0 0 64 64" width="512" height="512"><defs><linearGradient id="New_Gradient_Swatch_3" x1="18.652" y1="67.058" x2="21.186" y2="1.173" gradientUnits="userSpaceOnUse"><stop offset="0" stop-color="#006df0"/><stop offset="1" stop-color="#00e7f0"/></linearGradient><linearGradient id="New_Gradient_Swatch_3-2" x1="48.723" y1="68.215" x2="51.257" y2="2.33" xlink:href="#New_Gradient_Swatch_3"/><linearGradient id="New_Gradient_Swatch_3-3" x1="50.489" y1="68.283" x2="53.023" y2="2.398" xlink:href="#New_Gradient_Swatch_3"/><linearGradient id="New_Gradient_Swatch_3-4" x1="29.367" y1="67.47" x2="31.901" y2="1.585" xlink:href="#New_Gradient_Swatch_3"/><linearGradient id="New_Gradient_Swatch_3-5" x1="46.418" y1="68.126" x2="48.952" y2="2.241" xlink:href="#New_Gradient_Swatch_3"/><linearGradient id="New_Gradient_Swatch_3-6" x1="18.92" y1="67.068" x2="21.454" y2="1.183" xlink:href="#New_Gradient_Swatch_3"/></defs><g id="Mobile_credit_card" data-name="Mobile credit card"><path d="M32,6H28a1,1,0,0,0-1,1,1,1,0,0,1-1,1H14a1,1,0,0,1-1-1,1,1,0,0,0-1-1H8A2,2,0,0,0,6,8V56a2,2,0,0,0,2,2H32a2,2,0,0,0,2-2V8A2,2,0,0,0,32,6ZM12,22V21a3,3,0,0,1,3-3H32v4Zm20,2v4H12V24ZM12,30H32V46H15a3,3,0,0,1-3-3ZM8,56V8h3.171A3.006,3.006,0,0,0,14,10H26a3.006,3.006,0,0,0,2.829-2H32v8H15a5.006,5.006,0,0,0-5,5V43a5.006,5.006,0,0,0,5,5H32v8Z" style="fill:url(#New_Gradient_Swatch_3)"/><path d="M61,5H49V3a1,1,0,0,0-1.581-.814l-7,5a1,1,0,0,0,0,1.628l7,5A1,1,0,0,0,49,13V11H61a1,1,0,0,0,1-1V6A1,1,0,0,0,61,5ZM60,9H48a1,1,0,0,0-1,1v1.058L42.721,8,47,4.943V6a1,1,0,0,0,1,1H60Z" style="fill:url(#New_Gradient_Swatch_3-2)"/><path d="M61.581,55.186l-7-5A1,1,0,0,0,53,51v2H41a1,1,0,0,0-1,1v4a1,1,0,0,0,1,1H53v2a1,1,0,0,0,1.581.814l7-5a1,1,0,0,0,0-1.628ZM55,59.058V58a1,1,0,0,0-1-1H42V55H54a1,1,0,0,0,1-1V52.943L59.279,56Z" style="fill:url(#New_Gradient_Swatch_3-3)"/><path d="M55,48a5.006,5.006,0,0,0,5-5V21a5.006,5.006,0,0,0-5-5H38V7a5.006,5.006,0,0,0-5-5H7A5.006,5.006,0,0,0,2,7V57a5.006,5.006,0,0,0,5,5H33a5.006,5.006,0,0,0,5-5V48Zm0-2H38V30H58V43A3,3,0,0,1,55,46Zm3-18H38V24H58ZM55,18a3,3,0,0,1,3,3v1H38V18ZM36,57a3,3,0,0,1-3,3H7a3,3,0,0,1-3-3V7A3,3,0,0,1,7,4H33a3,3,0,0,1,3,3Z" style="fill:url(#New_Gradient_Swatch_3-4)"/><path d="M50,36a3.966,3.966,0,0,0-2.49.894,4,4,0,1,0,0,6.212A3.992,3.992,0,1,0,50,36Zm-7,4a2,2,0,0,1,2-2,1.968,1.968,0,0,1,1.3.486,3.946,3.946,0,0,0,0,3.028A1.968,1.968,0,0,1,45,42,2,2,0,0,1,43,40Zm7,2a2,2,0,1,1,2-2A2,2,0,0,1,50,42Z" style="fill:url(#New_Gradient_Swatch_3-5)"/><path d="M17,44h6a3,3,0,0,0,3-3V37a3,3,0,0,0-3-3H17a3,3,0,0,0-3,3v4A3,3,0,0,0,17,44Zm6-2H22V40h2v1A1,1,0,0,1,23,42Zm1-5v1H22V36h1A1,1,0,0,1,24,37Zm-8,0a1,1,0,0,1,1-1h3v6H17a1,1,0,0,1-1-1Z" style="fill:url(#New_Gradient_Swatch_3-6)"/></g></svg>
